<svg xmlns="http://www.w3.org/2000/svg" viewBox="0 0 100 100" fill="none" stroke="#ffffffff" stroke-width="4" stroke-linecap="round" stroke-linejoin="round">
  <circle cx="50" cy="40" r="30" />
  
  <path d="M50 10 L50 70" opacity="0.5"/>
  <path d="M20 40 L80 40" opacity="0.5"/>
  <path d="M29 19 L71 61" opacity="0.5"/>
  <path d="M29 61 L71 19" opacity="0.5"/>
  <circle cx="50" cy="40" r="5" fill="#eb253fff" stroke="none" />

  <path d="M50 70 L50 95" />
  <path d="M50 95 Q40 90 45 80" />
  <path d="M50 95 Q60 90 55 80" />

  <path d="M26 58 L15 80" />
  <path d="M15 80 Q5 75 10 65" />
  <path d="M15 80 Q25 75 20 65" />

  <path d="M74 58 L85 80" />
  <path d="M85 80 Q95 75 90 65" />
  <path d="M85 80 Q75 75 80 65" />
</svg>